<svg width="52" height="52" viewBox="0 0 52 52" fill="none" xmlns="http://www.w3.org/2000/svg">
<g filter="url(#filter0_d_1_2332)">
<path d="M48 21.9999C48 28.0751 45.5376 33.5751 41.5564 37.5563C37.5751 41.5375 32.0751 43.9999 26 43.9999C19.9249 43.9999 14.4249 41.5375 10.4437 37.5563C6.46243 33.5751 4 28.0751 4 21.9999C4 15.9248 6.46243 10.4248 10.4437 6.44359C14.4249 2.46237 19.9249 -6.10352e-05 26 -6.10352e-05C32.0751 -6.10352e-05 37.5751 2.46237 41.5564 6.44359C45.5376 10.4248 48 15.9248 48 21.9999Z" fill="white"/>
<g clip-path="url(#clip0_1_2332)">
<path d="M35.9804 17.8801C35.9336 16.8174 35.7617 16.0868 35.5156 15.4537C35.2616 14.7818 34.8709 14.1801 34.359 13.68C33.8589 13.1721 33.2533 12.7774 32.5891 12.5274C31.9524 12.2813 31.2256 12.1094 30.163 12.0626C29.0924 12.0118 28.7525 12 26.0371 12C23.3217 12 22.9818 12.0118 21.9152 12.0586C20.8525 12.1055 20.1219 12.2775 19.489 12.5235C18.8169 12.7774 18.2153 13.1681 17.7152 13.68C17.2073 14.1801 16.8127 14.7857 16.5626 15.4499C16.3164 16.0868 16.1446 16.8134 16.0977 17.8761C16.0469 18.9467 16.0352 19.2866 16.0352 22.002C16.0352 24.7173 16.0469 25.0572 16.0938 26.1239C16.1406 27.1865 16.3126 27.9171 16.5588 28.5502C16.8127 29.2221 17.2073 29.8238 17.7152 30.3239C18.2153 30.8318 18.8209 31.2265 19.4851 31.4765C20.1219 31.7226 20.8486 31.8945 21.9114 31.9413C22.9779 31.9883 23.3179 31.9999 26.0333 31.9999C28.7487 31.9999 29.0885 31.9883 30.1552 31.9413C31.2179 31.8945 31.9484 31.7226 32.5813 31.4765C33.9254 30.9568 34.9881 29.8941 35.5078 28.5502C35.7538 27.9133 35.9258 27.1865 35.9727 26.1239C36.0195 25.0572 36.0313 24.7173 36.0313 22.002C36.0313 19.2866 36.0273 18.9467 35.9804 17.8801ZM34.1794 26.0457C34.1364 27.0225 33.9723 27.5499 33.8356 27.9015C33.4995 28.7728 32.808 29.4643 31.9367 29.8004C31.5851 29.9372 31.0538 30.1012 30.0809 30.1441C29.026 30.1911 28.7096 30.2027 26.0411 30.2027C23.3726 30.2027 23.0522 30.1911 22.0011 30.1441C21.0244 30.1012 20.4969 29.9372 20.1453 29.8004C19.7117 29.6402 19.317 29.3862 18.9967 29.0541C18.6646 28.7298 18.4106 28.3391 18.2504 27.9055C18.1137 27.5539 17.9496 27.0225 17.9067 26.0497C17.8597 24.9948 17.8481 24.6783 17.8481 22.0097C17.8481 19.3412 17.8597 19.0209 17.9067 17.9699C17.9496 16.9932 18.1137 16.4657 18.2504 16.1141C18.4106 15.6804 18.6646 15.2859 19.0007 14.9654C19.3248 14.6333 19.7155 14.3793 20.1493 14.2192C20.5009 14.0825 21.0323 13.9184 22.0051 13.8754C23.06 13.8285 23.3765 13.8168 26.0449 13.8168C28.7174 13.8168 29.0337 13.8285 30.0848 13.8754C31.0616 13.9184 31.589 14.0825 31.9407 14.2192C32.3742 14.3793 32.7689 14.6333 33.0893 14.9654C33.4213 15.2897 33.6753 15.6804 33.8356 16.1141C33.9723 16.4657 34.1364 16.997 34.1794 17.9699C34.2263 19.0248 34.238 19.3412 34.238 22.0097C34.238 24.6783 34.2263 24.9908 34.1794 26.0457Z" fill="#AFB1B8"/>
<path d="M26.0371 16.8642C23.2007 16.8642 20.8994 19.1654 20.8994 22.0019C20.8994 24.8385 23.2007 27.1396 26.0371 27.1396C28.8737 27.1396 31.1749 24.8385 31.1749 22.0019C31.1749 19.1654 28.8737 16.8642 26.0371 16.8642ZM26.0371 25.3346C24.197 25.3346 22.7044 23.8422 22.7044 22.0019C22.7044 20.1617 24.197 18.6692 26.0371 18.6692C27.8774 18.6692 29.3698 20.1617 29.3698 22.0019C29.3698 23.8422 27.8774 25.3346 26.0371 25.3346Z" fill="#AFB1B8"/>
<path d="M32.5775 16.6611C32.5775 17.3235 32.0404 17.8605 31.3779 17.8605C30.7155 17.8605 30.1785 17.3235 30.1785 16.6611C30.1785 15.9986 30.7155 15.4617 31.3779 15.4617C32.0404 15.4617 32.5775 15.9986 32.5775 16.6611Z" fill="#AFB1B8"/>
</g>
</g>
<defs>
<filter id="filter0_d_1_2332" x="0" y="-6.10352e-05" width="52" height="52.0001" filterUnits="userSpaceOnUse" color-interpolation-filters="sRGB">
<feFlood flood-opacity="0" result="BackgroundImageFix"/>
<feColorMatrix in="SourceAlpha" type="matrix" values="0 0 0 0 0 0 0 0 0 0 0 0 0 0 0 0 0 0 127 0" result="hardAlpha"/>
<feOffset dy="4"/>
<feGaussianBlur stdDeviation="2"/>
<feComposite in2="hardAlpha" operator="out"/>
<feColorMatrix type="matrix" values="0 0 0 0 0 0 0 0 0 0 0 0 0 0 0 0 0 0 0.25 0"/>
<feBlend mode="normal" in2="BackgroundImageFix" result="effect1_dropShadow_1_2332"/>
<feBlend mode="normal" in="SourceGraphic" in2="effect1_dropShadow_1_2332" result="shape"/>
</filter>
<clipPath id="clip0_1_2332">
<rect width="20" height="20" fill="white" transform="translate(16 12)"/>
</clipPath>
</defs>
</svg>
